<?xml version="1.0" encoding="UTF-8" standalone="no"?>
<!-- Generator: Adobe Illustrator 13.0.0, SVG Export Plug-In . SVG Version: 6.00 Build 14948)  -->

<svg
   xmlns:dc="http://purl.org/dc/elements/1.1/"
   xmlns:cc="http://creativecommons.org/ns#"
   xmlns:rdf="http://www.w3.org/1999/02/22-rdf-syntax-ns#"
   xmlns:svg="http://www.w3.org/2000/svg"
   xmlns="http://www.w3.org/2000/svg"
   xmlns:sodipodi="http://sodipodi.sourceforge.net/DTD/sodipodi-0.dtd"
   xmlns:inkscape="http://www.inkscape.org/namespaces/inkscape"
   version="1.1"
   id="_x30_00_2_"
   x="0px"
   y="0px"
   width="4295.141px"
   height="1497.789px"
   viewBox="0 2.789 4295.141 1497.789"
   enable-background="new 0 2.789 4295.141 1497.789"
   xml:space="preserve"
   sodipodi:docname="logo_large.svg"
   inkscape:version="0.92.0 r15299"><metadata
     id="metadata4654"><rdf:RDF><cc:Work
         rdf:about=""><dc:format>image/svg+xml</dc:format><dc:type
           rdf:resource="http://purl.org/dc/dcmitype/StillImage" /><dc:title></dc:title></cc:Work></rdf:RDF></metadata><defs
     id="defs4652" /><sodipodi:namedview
     pagecolor="#ffffff"
     bordercolor="#666666"
     borderopacity="1"
     objecttolerance="10"
     gridtolerance="10"
     guidetolerance="10"
     inkscape:pageopacity="0"
     inkscape:pageshadow="2"
     inkscape:window-width="1920"
     inkscape:window-height="1017"
     id="namedview4650"
     showgrid="false"
     inkscape:zoom="0.23706643"
     inkscape:cx="1931.0743"
     inkscape:cy="880.6985"
     inkscape:window-x="-8"
     inkscape:window-y="-8"
     inkscape:window-maximized="1"
     inkscape:current-layer="_x30_00_2_" /><g
     style="fill:#225500"
     id="g4501"
     enable-background="new    "><path
       inkscape:connector-curvature="0"
       style="fill:#225500"
       id="path4485"
       d="m 1790.83,927.977 h -75.48 l -12.92,-86.359 h -91.8 l -12.92,86.359 h -68.681 l 76.16,-476 h 109.48 z m -170.68,-150.96 h 72.08 l -36.041,-240.72 z" /><path
       inkscape:connector-curvature="0"
       style="fill:#225500"
       id="path4487"
       d="m 2025.429,451.977 c 37.623,0 65.62,9.978 83.979,29.921 18.359,19.953 27.54,49.193 27.54,87.72 v 61.879 c 0,38.537 -9.181,67.777 -27.54,87.721 -18.359,19.953 -46.356,29.92 -83.979,29.92 h -35.359 v 178.841 h -74.801 v -476 z m -35.36,68 v 161.16 h 35.359 c 11.783,0 20.847,-3.166 27.199,-9.521 6.344,-6.344 9.521,-18.126 9.521,-35.359 v -71.4 c 0,-17.223 -3.177,-29.006 -9.521,-35.359 -6.354,-6.343 -15.416,-9.521 -27.199,-9.521 z" /><path
       inkscape:connector-curvature="0"
       style="fill:#225500"
       id="path4489"
       d="m 2336.188,652.576 h 102.681 v 68 h -102.681 v 139.399 h 129.2 v 68 h -204 v -476 h 204 v 68 h -129.2 z" /><path
       inkscape:connector-curvature="0"
       style="fill:#225500"
       id="path4491"
       d="m 2757.784,927.977 c -0.913,-3.166 -1.816,-6.119 -2.72,-8.84 -0.914,-2.72 -1.7,-6.12 -2.381,-10.2 -0.68,-4.08 -1.137,-9.285 -1.359,-15.64 -0.233,-6.344 -0.34,-14.28 -0.34,-23.801 v -74.8 c 0,-22.206 -3.856,-37.847 -11.561,-46.92 -7.714,-9.063 -20.177,-13.601 -37.4,-13.601 h -25.84 v 193.8 h -74.8 v -476 h 112.88 c 38.982,0 67.203,9.074 84.66,27.2 17.445,18.137 26.18,45.561 26.18,82.28 v 37.4 c 0,48.96 -16.32,81.153 -48.96,96.561 19.04,7.713 32.065,20.293 39.101,37.739 7.022,17.457 10.539,38.653 10.539,63.58 v 73.439 c 0,11.794 0.446,22.101 1.36,30.939 0.903,8.841 3.166,17.797 6.8,26.859 h -76.159 z m -81.598,-408 v 146.2 h 29.239 c 14.046,0 25.043,-3.623 32.979,-10.88 7.927,-7.246 11.899,-20.399 11.899,-39.439 v -46.921 c 0,-17.223 -3.061,-29.686 -9.18,-37.399 -6.12,-7.703 -15.757,-11.561 -28.899,-11.561 z" /><path
       inkscape:connector-curvature="0"
       style="fill:#225500"
       id="path4493"
       d="m 2944.1,451.977 h 231.2 v 68 h -78.2 v 408 h -74.8 v -408 h -78.2 z" /><path
       inkscape:connector-curvature="0"
       style="fill:#225500"
       id="path4495"
       d="m 3370.45,451.977 v 367.2 c 0,17.233 3.507,29.24 10.54,36.04 7.022,6.8 16.427,10.2 28.221,10.2 11.783,0 21.186,-3.4 28.22,-10.2 7.023,-6.8 10.54,-18.807 10.54,-36.04 v -367.2 h 70.721 v 362.44 c 0,38.536 -9.414,68.116 -28.221,88.739 -18.816,20.634 -46.58,30.939 -83.3,30.939 -36.721,0 -64.494,-10.307 -83.301,-30.939 -18.816,-20.623 -28.22,-50.203 -28.22,-88.739 v -362.44 z" /><path
       inkscape:connector-curvature="0"
       style="fill:#225500"
       id="path4497"
       d="m 3815.847,927.977 c -0.913,-3.166 -1.815,-6.119 -2.72,-8.84 -0.914,-2.72 -1.7,-6.12 -2.38,-10.2 -0.68,-4.08 -1.137,-9.285 -1.36,-15.64 -0.232,-6.344 -0.34,-14.28 -0.34,-23.801 v -74.8 c 0,-22.206 -3.855,-37.847 -11.561,-46.92 -7.714,-9.063 -20.177,-13.601 -37.399,-13.601 h -25.84 v 193.8 h -74.8 v -476 h 112.879 c 38.983,0 67.203,9.074 84.66,27.2 17.446,18.137 26.18,45.561 26.18,82.28 v 37.4 c 0,48.96 -16.319,81.153 -48.959,96.561 19.039,7.713 32.065,20.293 39.1,37.739 7.023,17.457 10.54,38.653 10.54,63.58 v 73.439 c 0,11.794 0.446,22.101 1.36,30.939 0.902,8.841 3.166,17.797 6.8,26.859 h -76.16 z m -81.6,-408 v 146.2 h 29.24 c 14.046,0 25.043,-3.623 32.979,-10.88 7.927,-7.246 11.9,-20.399 11.9,-39.439 v -46.921 c 0,-17.223 -3.062,-29.686 -9.181,-37.399 -6.119,-7.703 -15.757,-11.561 -28.899,-11.561 z" /><path
       inkscape:connector-curvature="0"
       style="fill:#225500"
       id="path4499"
       d="m 4097.361,652.576 h 102.681 v 68 h -102.681 v 139.399 h 129.201 v 68 h -204 v -476 h 204 v 68 h -129.201 z" /></g><path
     d="m 2785.988,1000.795 h 34.649 v 220.5 h -34.649 z"
     id="path4517"
     style="fill:#225500"
     inkscape:connector-curvature="0" /><path
     d="m 2897.448,1061.59 v 159.705 h -31.186 v -220.5 h 43.47 l 35.596,131.985 v -131.985 h 30.87 v 220.5 h -35.595 z"
     id="path4519"
     style="fill:#225500"
     inkscape:connector-curvature="0" /><path
     d="m 3054.695,1061.59 v 159.705 h -31.186 v -220.5 h 43.471 l 35.595,131.985 v -131.985 h 30.87 v 220.5 h -35.596 z"
     id="path4521"
     style="fill:#225500"
     inkscape:connector-curvature="0" /><path
     d="m 3182.236,1053.715 c 0,-17.847 4.514,-31.549 13.545,-41.106 9.027,-9.555 22.051,-14.332 39.061,-14.332 17.01,0 30.028,4.777 39.061,14.332 9.027,9.559 13.545,23.261 13.545,41.106 v 114.66 c 0,17.853 -4.519,31.554 -13.545,41.107 -9.031,9.559 -22.051,14.332 -39.061,14.332 -17.01,0 -30.033,-4.773 -39.061,-14.332 -9.031,-9.555 -13.545,-23.257 -13.545,-41.107 z m 34.65,116.865 c 0,7.983 1.624,13.599 4.884,16.853 3.252,3.259 7.607,4.883 13.071,4.883 5.458,0 9.814,-1.625 13.072,-4.883 3.254,-3.254 4.883,-8.869 4.883,-16.853 v -119.07 c 0,-7.979 -1.629,-13.594 -4.883,-16.853 -3.258,-3.253 -7.614,-4.882 -13.072,-4.882 -5.464,0 -9.819,1.629 -13.071,4.882 -3.26,3.259 -4.884,8.874 -4.884,16.853 z"
     id="path4523"
     style="fill:#225500"
     inkscape:connector-curvature="0" /><path
     d="m 3384.531,1180.66 26.46,-179.865 h 31.814 l -34.021,220.5 h -51.659 l -34.021,-220.5 h 34.965 z"
     id="path4525"
     style="fill:#225500"
     inkscape:connector-curvature="0" /><path
     d="m 3587.881,1221.295 h -34.965 l -5.985,-40.005 h -42.524 l -5.984,40.005 h -31.814 l 35.279,-220.5 h 50.716 z m -79.065,-69.93 h 33.391 l -16.695,-111.511 z"
     id="path4527"
     style="fill:#225500"
     inkscape:connector-curvature="0" /><path
     d="m 3603.24,1000.795 h 107.1 v 31.5 h -36.225 v 189 h -34.65 v -189 h -36.225 z"
     id="path4529"
     style="fill:#225500"
     inkscape:connector-curvature="0" /><path
     d="m 3739.995,1053.715 c 0,-17.847 4.514,-31.549 13.545,-41.106 9.027,-9.555 22.051,-14.332 39.062,-14.332 17.01,0 30.027,4.777 39.06,14.332 9.027,9.559 13.545,23.261 13.545,41.106 v 114.66 c 0,17.853 -4.519,31.554 -13.545,41.107 -9.031,9.559 -22.05,14.332 -39.06,14.332 -17.011,0 -30.033,-4.773 -39.062,-14.332 -9.031,-9.555 -13.545,-23.257 -13.545,-41.107 z m 34.651,116.865 c 0,7.983 1.623,13.599 4.883,16.853 3.253,3.259 7.607,4.883 13.072,4.883 5.457,0 9.813,-1.625 13.071,-4.883 3.254,-3.254 4.884,-8.869 4.884,-16.853 v -119.07 c 0,-7.979 -1.629,-13.594 -4.884,-16.853 -3.258,-3.253 -7.614,-4.882 -13.071,-4.882 -5.465,0 -9.819,1.629 -13.072,4.882 -3.26,3.259 -4.883,8.874 -4.883,16.853 z"
     id="path4531"
     style="fill:#225500"
     inkscape:connector-curvature="0" /><path
     d="m 3956.765,1221.295 c -0.423,-1.467 -0.842,-2.835 -1.26,-4.095 -0.423,-1.261 -0.787,-2.835 -1.103,-4.727 -0.315,-1.89 -0.526,-4.302 -0.631,-7.244 -0.107,-2.938 -0.156,-6.614 -0.156,-11.024 v -34.65 c 0,-10.286 -1.787,-17.53 -5.355,-21.733 -3.572,-4.199 -9.347,-6.301 -17.324,-6.301 h -11.971 v 89.774 h -34.649 v -220.5 h 52.29 c 18.059,0 31.131,4.203 39.218,12.601 8.082,8.401 12.128,21.104 12.128,38.114 v 17.325 c 0,22.68 -7.561,37.593 -22.681,44.729 8.819,3.574 14.854,9.401 18.112,17.483 3.254,8.086 4.883,17.905 4.883,29.452 v 34.02 c 0,5.465 0.207,10.238 0.63,14.334 0.419,4.095 1.467,8.243 3.149,12.441 z m -37.8,-189 v 67.726 h 13.545 c 6.508,0 11.602,-1.679 15.277,-5.041 3.672,-3.355 5.513,-9.448 5.513,-18.27 v -21.735 c 0,-7.979 -1.417,-13.751 -4.253,-17.323 -2.835,-3.568 -7.299,-5.355 -13.387,-5.355 h -16.695 z"
     id="path4533"
     style="fill:#225500"
     inkscape:connector-curvature="0" /><path
     d="m 4027.278,1053.715 c 0,-17.847 4.252,-31.549 12.757,-41.106 8.505,-9.555 21.262,-14.332 38.271,-14.332 17.012,0 29.769,4.777 38.272,14.332 8.505,9.559 12.758,23.261 12.758,41.106 v 8.505 h -32.76 v -10.71 c 0,-7.979 -1.526,-13.594 -4.567,-16.853 -3.047,-3.253 -7.299,-4.882 -12.758,-4.882 -5.463,0 -9.715,1.629 -12.758,4.882 -3.045,3.259 -4.566,8.874 -4.566,16.853 0,7.562 1.68,14.229 5.04,20.003 3.356,5.778 7.562,11.236 12.601,16.381 5.039,5.147 10.443,10.291 16.223,15.435 5.773,5.147 11.184,10.765 16.223,16.853 5.041,6.095 9.238,13.023 12.602,20.791 3.355,7.771 5.04,16.906 5.04,27.404 0,17.853 -4.36,31.555 -13.073,41.107 -8.717,9.559 -21.577,14.332 -38.587,14.332 -17.011,0 -29.876,-4.773 -38.588,-14.332 -8.717,-9.554 -13.072,-23.256 -13.072,-41.107 v -15.12 h 32.761 v 17.325 c 0,7.983 1.623,13.545 4.883,16.695 3.252,3.148 7.608,4.725 13.071,4.725 5.458,0 9.813,-1.575 13.071,-4.725 3.254,-3.15 4.883,-8.712 4.883,-16.695 0,-7.561 -1.684,-14.225 -5.039,-20.003 -3.361,-5.772 -7.561,-11.231 -12.601,-16.38 -5.04,-5.145 -10.449,-10.286 -16.224,-15.436 -5.777,-5.144 -11.183,-10.76 -16.222,-16.853 -5.04,-6.089 -9.243,-13.02 -12.6,-20.79 -3.364,-7.766 -5.041,-16.902 -5.041,-27.405 z"
     id="path4535"
     style="fill:#225500"
     inkscape:connector-curvature="0" /><path
     inkscape:connector-curvature="0"
     style="fill:#225500"
     d="m 1653.8418,1093.72 h 47.564 v 31.5 h -47.564 v 64.575 h 59.85 v 31.5 h -94.5 v -220.5001 h 94.5 v 31.5001 h -59.85 z"
     id="path4515-6" /><path
     inkscape:connector-curvature="0"
     style="fill:#225500"
     d="m 1842.5395,1139.0795 v 29.295 c 0,17.853 -4.36,31.554 -13.072,41.107 -8.717,9.559 -21.578,14.332 -38.588,14.332 -17.01,0 -29.876,-4.773 -38.587,-14.332 -8.717,-9.555 -13.073,-23.257 -13.073,-41.107 v -114.66 c 0,-17.847 4.356,-31.549 13.073,-41.106 8.711,-9.555 21.577,-14.33206 38.587,-14.33206 17.01,0 29.871,4.77706 38.588,14.33206 8.712,9.559 13.072,23.261 13.072,41.106 v 21.42 h -32.76 v -23.625 c 0,-7.979 -1.629,-13.594 -4.884,-16.853 -3.258,-3.253 -7.614,-4.882 -13.071,-4.882 -5.465,0 -9.819,1.629 -13.072,4.882 -3.26,3.259 -4.883,8.874 -4.883,16.853 v 119.07 c 0,7.983 1.623,13.545 4.883,16.694 3.253,3.149 7.607,4.726 13.072,4.726 5.457,0 9.813,-1.575 13.071,-4.726 3.254,-3.149 4.884,-8.712 4.884,-16.694 v -31.5 z"
     id="path4513-5" /><path
     inkscape:connector-curvature="0"
     style="fill:#225500"
     d="m 1871.5842,1053.7145 c 0,-17.847 4.514,-31.549 13.545,-41.106 9.027,-9.555 22.051,-14.33205 39.061,-14.33205 17.01,0 30.028,4.77705 39.061,14.33205 9.027,9.559 13.545,23.261 13.545,41.106 v 114.66 c 0,17.853 -4.519,31.554 -13.545,41.107 -9.031,9.559 -22.051,14.332 -39.061,14.332 -17.01,0 -30.033,-4.773 -39.061,-14.332 -9.031,-9.555 -13.545,-23.257 -13.545,-41.107 z m 34.65,116.865 c 0,7.983 1.624,13.599 4.884,16.853 3.252,3.259 7.607,4.883 13.071,4.883 5.458,0 9.814,-1.625 13.072,-4.883 3.254,-3.254 4.883,-8.869 4.883,-16.853 v -119.07 c 0,-7.979 -1.629,-13.594 -4.883,-16.853 -3.258,-3.253 -7.614,-4.882 -13.072,-4.882 -5.464,0 -9.819,1.629 -13.071,4.882 -3.26,3.259 -4.884,8.874 -4.884,16.853 z"
     id="path4523-9" /><path
     inkscape:connector-curvature="0"
     style="fill:#225500"
     d="m 2033.064,1061.59 v 159.705 h -31.186 v -220.5001 h 43.471 l 35.595,131.9851 v -131.9851 h 30.87 v 220.5001 h -35.596 z"
     id="path4521-8" /><path
     inkscape:connector-curvature="0"
     style="fill:#225500"
     d="m 2135.005,1053.7145 c 0,-17.847 4.514,-31.549 13.545,-41.106 9.027,-9.555 22.051,-14.33205 39.061,-14.33205 17.01,0 30.028,4.77705 39.061,14.33205 9.027,9.559 13.545,23.261 13.545,41.106 v 114.66 c 0,17.853 -4.519,31.554 -13.545,41.107 -9.031,9.559 -22.051,14.332 -39.061,14.332 -17.01,0 -30.033,-4.773 -39.061,-14.332 -9.031,-9.555 -13.545,-23.257 -13.545,-41.107 z m 34.65,116.865 c 0,7.983 1.624,13.599 4.884,16.853 3.252,3.259 7.607,4.883 13.071,4.883 5.458,0 9.814,-1.625 13.072,-4.883 3.254,-3.254 4.883,-8.869 4.883,-16.853 v -119.07 c 0,-7.979 -1.629,-13.594 -4.883,-16.853 -3.258,-3.253 -7.614,-4.882 -13.072,-4.882 -5.464,0 -9.819,1.629 -13.071,4.882 -3.26,3.259 -4.884,8.874 -4.884,16.853 z"
     id="path4523-2" /><g
     id="g4784"
     transform="translate(-452.13609,-273.53179)"
     style="fill:#225500"><path
       sodipodi:nodetypes="ccccccccccc"
       id="path4519-1"
       d="m 2745.484,1335.1217 v 159.705 h -31.186 v -220.5 h 43.47 l 35.596,131.985 v 0 l 30.87,88.515 v 0 h -35.595 z"
       style="fill:#225500"
       inkscape:connector-curvature="0" /><path
       sodipodi:nodetypes="ccccccccccc"
       id="path4519-6"
       d="m 2872.114,1335.1217 v 159.705 h 31.186 v -220.5 h -43.47 l -35.596,131.985 v 0 l -30.87,88.515 v 0 h 35.595 z"
       style="fill:#225500"
       inkscape:connector-curvature="0" /></g><path
     inkscape:connector-curvature="0"
     style="fill:#225500"
     d="m 2487.987,1000.7949 h 34.65 v 220.5001 h -34.65 z"
     id="path4507-9" /><path
     inkscape:connector-curvature="0"
     style="fill:#225500"
     d="m 2651.6168,1139.0794 v 29.295 c 0,17.853 -4.36,31.554 -13.072,41.107 -8.717,9.5591 -21.578,14.332 -38.588,14.332 -17.01,0 -29.876,-4.773 -38.587,-14.332 -8.717,-9.555 -13.073,-23.257 -13.073,-41.1069 v -114.66 c 0,-17.847 4.356,-31.549 13.073,-41.106 8.711,-9.555 21.577,-14.33203 38.587,-14.33203 17.01,0 29.871,4.77703 38.588,14.33203 8.712,9.559 13.072,23.261 13.072,41.106 v 21.42 h -32.76 v -23.625 c 0,-7.9791 -1.629,-13.594 -4.884,-16.8531 -3.258,-3.2529 -7.614,-4.882 -13.071,-4.882 -5.465,0 -9.819,1.629 -13.072,4.882 -3.26,3.259 -4.883,8.874 -4.883,16.8531 v 119.0699 c 0,7.9831 1.623,13.5451 4.883,16.6941 3.253,3.149 7.607,4.726 13.072,4.726 5.457,0 9.813,-1.575 13.071,-4.726 3.254,-3.149 4.884,-8.712 4.884,-16.6941 v -31.5 z"
     id="path4513-51" /><g
     style="stroke:#225500"
     id="g4546"><path
       style="fill:none;stroke:#225500;stroke-width:24"
       inkscape:connector-curvature="0"
       id="path4540"
       d="m 871.664,682.51 c 103.576,178.177 131.751,355.046 62.931,395.056 C 865.776,1117.574 726.013,1005.568 622.436,827.39 518.859,649.213 490.688,472.34 559.508,432.33 c 68.82,-40.003 208.578,72.003 312.156,250.18 z" /><path
       style="fill:none;stroke:#225500;stroke-width:24"
       inkscape:connector-curvature="0"
       id="path4542"
       d="M 871.723,827.289 C 768.285,1005.551 628.619,1117.668 559.766,1077.717 490.913,1037.766 518.943,860.865 622.372,682.61 725.81,504.35 865.476,392.235 934.332,432.184 c 68.855,39.953 40.824,216.85 -62.609,395.105 z" /><path
       style="fill:none;stroke:#225500;stroke-width:24"
       inkscape:connector-curvature="0"
       id="path4544"
       d="m 747.926,899.092 c -206.099,-0.18 -373.112,-64.854 -373.044,-144.459 0.064,-79.603 167.191,-144 373.288,-143.824 206.096,0.176 373.109,64.854 373.046,144.458 -0.069,79.606 -167.197,143.999 -373.29,143.825 z" /></g><g
     style="stroke:#225500;fill:#338000"
     id="Layer_3_1_"><circle
       style="fill:#338000;stroke:#225500"
       id="circle4548"
       r="47.5"
       cy="755.09198"
       cx="747.05103" /></g><g
     id="_x30_0_3_"
     style="fill:#112b00"><g
       id="g4556"
       style="fill:#112b00"><g
         id="g4554"
         style="fill:#112b00"><path
           d="m 788.404,1145.604 v 294.793 c 169.561,-9.967 322.608,-81.338 437.235,-192.199 L 790.003,1145.427 c -0.533,0.053 -1.064,0.122 -1.599,0.177 z m 0,-1059.102 v 275.115 c 83.378,8.406 159.064,42.828 218.869,94.998 z m 352.057,627.979 110.769,-400.207 -197.142,190.748 c 47.474,58.307 78.582,130.457 86.373,209.459 z m -323.802,427.214 396.487,93.535 -191.43,-197.844 c -55.302,53.28 -126.148,90.526 -205.057,104.309 z M 445.957,501.1 77.841,743.489 h 276.69 c 2.324,-92.143 36.287,-176.42 91.426,-242.389 z m 71.295,571.601 241.229,351.463 V 1147.48 c -3.352,0.084 -6.709,0.127 -10.078,0.127 -86.358,0 -166.222,-27.787 -231.151,-74.906 z M 358.283,808.984 269.345,1222.679 468.043,1030.427 C 410.02,971.668 370.348,894.758 358.283,808.984 Z M 720.167,360.622 304.104,252.69 496.031,451.047 c 61.597,-51.437 139.143,-84.406 224.136,-90.425 z m 314.144,121.9 210.775,-203.938 C 1128.615,156.592 967.741,77.369 788.404,66.828 v 0.522 l 244.902,414.141 c 0.334,0.343 0.674,0.681 1.005,1.031 z M 473.752,471.124 c 0.012,-0.01 0.021,-0.021 0.034,-0.033 L 268.873,259.307 C 141.957,382.198 62.224,553.522 59.484,743.489 h 0.633 z M 354.895,773.408 H 59.694 c 5.078,179.738 79.092,342.225 196.542,461.955 l 0.518,-0.5 98.378,-457.611 c -0.077,-1.281 -0.173,-2.557 -0.237,-3.844 z m 134.983,277.526 -212.224,205.342 c 122.963,114.961 288.136,185.336 469.749,185.336 3.7,0 7.393,-0.041 11.078,-0.1 v -0.119 L 491.343,1052.182 c -0.484,-0.418 -0.981,-0.827 -1.465,-1.248 z M 1435.323,743.489 C 1432.879,573.993 1369.136,419.337 1265.279,300.68 l -0.231,0.227 -122.498,442.582 z m -392.839,272.327 204.243,211.09 c 112.658,-118.813 183.356,-277.803 188.378,-453.244 l -392.315,241.805 c -0.105,0.117 -0.205,0.234 -0.306,0.349 z m 19.455,-23.603 354.995,-218.803 h -275.021 c -4.062,82.047 -33.235,157.479 -79.974,218.803 z M 290.811,238.95 l 0.284,0.294 464.269,120.436 c 1.041,0.02 2.082,0.031 3.118,0.061 V 65.709 c -3.687,-0.058 -7.378,-0.098 -11.077,-0.098 -175.212,10e-4 -335.124,65.496 -456.594,173.339 z"
           id="path4552"
           inkscape:connector-curvature="0"
           style="fill:#112b00" /></g></g><g
       id="Layer_1_1_"
       style="fill:#112b00"><g
         id="bg_1_"
         display="none"
         style="display:none;fill:#112b00"><rect
           x="-323.328"
           y="-245.94501"
           display="inline"
           width="2145.2141"
           height="2471.623"
           id="rect4558"
           style="display:inline;fill:#112b00" /></g><g
         id="external_rectangle_1_"
         display="none"
         style="display:none;fill:#112b00"><path
           display="inline"
           d="m -249.323,1462.941 c 0,-7.918 5.539,-14.338 12.371,-14.338 h 1976.458 c 6.834,0 12.373,6.42 12.373,14.338 v 670.396 c 0,7.92 -5.539,14.34 -12.373,14.34 H -236.952 c -6.833,0 -12.371,-6.42 -12.371,-14.34 z"
           id="path4561"
           inkscape:connector-curvature="0"
           style="display:inline;fill:#112b00;stroke:#637b93;stroke-width:68" /></g><g
         id="external_circle_1_"
         display="none"
         style="display:none;fill:#112b00"><circle
           display="inline"
           cx="748.92798"
           cy="760.72498"
           r="810"
           id="circle4564"
           style="display:inline;fill:#112b00;stroke:#637b93;stroke-width:68" /></g><g
         id="rectangle_bg_bas_1_"
         display="none"
         style="display:none;fill:#112b00"><path
           display="inline"
           d="m -246.071,2096.574 c 0,9.934 12.215,17.982 27.28,17.982 h 1941.437 c 15.064,0 27.277,-8.055 27.277,-17.982 v -596.527 c 0,-9.938 -12.213,-17.984 -27.277,-17.984 H -218.789 c -15.065,0 -27.28,8.057 -27.28,17.984 z"
           id="path4567"
           inkscape:connector-curvature="0"
           style="display:inline;fill:#112b00" /></g><g
         id="text_bas_1_"
         style="fill:#112b00"><g
           display="none"
           enable-background="new    "
           id="g4604"
           style="display:none;fill:#112b00"><path
             display="inline"
             d="m -154.047,1928.391 c 0,-12.066 2.875,-21.332 8.626,-27.795 5.751,-6.461 14.377,-9.691 25.879,-9.691 11.502,0 20.128,3.23 25.879,9.691 5.751,6.463 8.626,15.729 8.626,27.795 v 5.752 h -22.152 v -7.242 c 0,-5.395 -1.031,-9.189 -3.088,-11.395 -2.06,-2.201 -4.936,-3.303 -8.626,-3.303 -3.694,0 -6.569,1.102 -8.626,3.303 -2.061,2.203 -3.089,6 -3.089,11.395 0,5.111 1.136,9.621 3.408,13.525 2.271,3.908 5.112,7.598 8.521,11.076 3.407,3.479 7.063,6.959 10.969,10.438 3.904,3.48 7.562,7.277 10.97,11.396 3.407,4.117 6.247,8.807 8.521,14.057 2.27,5.256 3.407,11.434 3.407,18.531 0,12.072 -2.948,21.338 -8.84,27.797 -5.894,6.463 -14.59,9.691 -26.092,9.691 -11.503,0 -20.202,-3.23 -26.093,-9.691 -5.895,-6.459 -8.84,-15.725 -8.84,-27.797 v -10.229 h 22.152 v 11.721 c 0,5.395 1.1,9.152 3.303,11.289 2.199,2.129 5.145,3.189 8.838,3.189 3.691,0 6.637,-1.063 8.84,-3.189 2.201,-2.137 3.302,-5.896 3.302,-11.289 0,-5.113 -1.138,-9.619 -3.408,-13.525 -2.272,-3.904 -5.112,-7.596 -8.521,-11.076 -3.408,-3.479 -7.064,-6.957 -10.969,-10.438 -3.906,-3.48 -7.562,-7.275 -10.97,-11.396 -3.408,-4.115 -6.25,-8.803 -8.521,-14.059 -2.272,-5.25 -3.406,-11.428 -3.406,-18.531 z"
             id="path4570"
             inkscape:connector-curvature="0"
             style="display:inline;fill:#112b00" /><path
             display="inline"
             d="m 20.397,1986.115 v 19.811 c 0,12.07 -2.945,21.336 -8.839,27.797 -5.894,6.463 -14.59,9.691 -26.092,9.691 -11.502,0 -20.202,-3.23 -26.093,-9.691 -5.894,-6.461 -8.839,-15.727 -8.839,-27.797 v -77.533 c 0,-12.063 2.945,-21.332 8.839,-27.795 5.891,-6.461 14.591,-9.688 26.093,-9.688 11.502,0 20.198,3.229 26.092,9.688 5.895,6.463 8.839,15.73 8.839,27.795 v 14.484 H -1.751 v -15.979 c 0,-5.395 -1.104,-9.188 -3.301,-11.395 -2.204,-2.201 -5.149,-3.303 -8.844,-3.303 -3.691,0 -6.64,1.102 -8.839,3.303 -2.203,2.203 -3.301,6 -3.301,11.395 v 80.518 c 0,5.395 1.098,9.158 3.301,11.289 2.2,2.129 5.146,3.193 8.839,3.193 3.691,0 6.64,-1.064 8.844,-3.193 2.196,-2.131 3.301,-5.895 3.301,-11.289 v -21.301 z"
             id="path4572"
             inkscape:connector-curvature="0"
             style="display:inline;fill:#112b00" /><path
             display="inline"
             d="m 58.521,1892.607 h 23.434 v 149.102 H 58.521 Z"
             id="path4574"
             inkscape:connector-curvature="0"
             style="display:inline;fill:#112b00" /><path
             display="inline"
             d="m 146.274,1955.443 h 32.163 v 21.301 h -32.163 v 43.664 h 40.474 v 21.301 h -63.9 v -149.102 h 63.9 v 21.303 h -40.473 z"
             id="path4576"
             inkscape:connector-curvature="0"
             style="display:inline;fill:#112b00" /><path
             display="inline"
             d="m 245.958,1933.717 v 107.99 h -21.087 v -149.105 h 29.394 l 24.069,89.248 v -89.248 h 20.874 v 149.105 h -24.069 z"
             id="path4578"
             inkscape:connector-curvature="0"
             style="display:inline;fill:#112b00" /><path
             display="inline"
             d="m 407.835,1986.115 v 19.811 c 0,12.07 -2.948,21.336 -8.839,27.797 -5.896,6.463 -14.591,9.691 -26.093,9.691 -11.506,0 -20.202,-3.23 -26.097,-9.691 -5.894,-6.461 -8.84,-15.727 -8.84,-27.797 v -77.533 c 0,-12.063 2.946,-21.332 8.84,-27.795 5.895,-6.461 14.592,-9.688 26.097,-9.688 11.502,0 20.194,3.229 26.093,9.688 5.891,6.463 8.839,15.73 8.839,27.795 v 14.484 h -22.151 v -15.979 c 0,-5.395 -1.102,-9.188 -3.302,-11.395 -2.203,-2.201 -5.148,-3.303 -8.84,-3.303 -3.694,0 -6.644,1.102 -8.839,3.303 -2.204,2.203 -3.306,6 -3.306,11.395 v 80.518 c 0,5.395 1.102,9.158 3.306,11.289 2.195,2.129 5.145,3.193 8.839,3.193 3.688,0 6.637,-1.064 8.84,-3.193 2.2,-2.131 3.302,-5.895 3.302,-11.289 v -21.301 z"
             id="path4580"
             inkscape:connector-curvature="0"
             style="display:inline;fill:#112b00" /><path
             display="inline"
             d="m 469.389,1955.443 h 32.163 v 21.301 h -32.163 v 43.664 h 40.473 v 21.301 h -63.899 v -149.102 h 63.899 v 21.303 h -40.473 z"
             id="path4582"
             inkscape:connector-curvature="0"
             style="display:inline;fill:#112b00" /><path
             display="inline"
             d="m 605.07,1892.607 h 23.43 v 149.102 h -23.43 z"
             id="path4584"
             inkscape:connector-curvature="0"
             style="display:inline;fill:#112b00" /><path
             display="inline"
             d="m 690.267,1933.717 v 107.99 h -21.088 v -149.105 h 29.396 l 24.065,89.248 v -89.248 h 20.873 v 149.105 H 719.45 Z"
             id="path4586"
             inkscape:connector-curvature="0"
             style="display:inline;fill:#112b00" /><path
             display="inline"
             d="m 805.071,1933.717 v 107.99 h -21.089 v -149.105 h 29.396 l 24.066,89.248 v -89.248 h 20.875 v 149.105 H 834.25 Z"
             id="path4588"
             inkscape:connector-curvature="0"
             style="display:inline;fill:#112b00" /><path
             display="inline"
             d="m 897.083,1928.391 c 0,-12.066 3.053,-21.332 9.16,-27.795 6.104,-6.461 14.91,-9.691 26.412,-9.691 11.502,0 20.305,3.23 26.409,9.691 6.104,6.463 9.157,15.729 9.157,27.795 v 77.533 c 0,12.07 -3.055,21.336 -9.157,27.797 -6.104,6.463 -14.907,9.691 -26.409,9.691 -11.503,0 -20.313,-3.23 -26.412,-9.691 -6.107,-6.461 -9.16,-15.727 -9.16,-27.797 z m 23.431,79.025 c 0,5.395 1.1,9.193 3.302,11.395 2.198,2.203 5.146,3.305 8.841,3.305 3.689,0 6.639,-1.102 8.842,-3.305 2.197,-2.197 3.301,-5.996 3.301,-11.395 v -80.518 c 0,-5.395 -1.104,-9.189 -3.301,-11.395 -2.203,-2.199 -5.148,-3.303 -8.842,-3.303 -3.694,0 -6.643,1.104 -8.841,3.303 -2.202,2.203 -3.302,6 -3.302,11.395 z"
             id="path4590"
             inkscape:connector-curvature="0"
             style="display:inline;fill:#112b00" /><path
             display="inline"
             d="m 1042.35,2014.23 17.896,-121.623 h 21.514 l -23.004,149.102 h -34.937 l -23.005,-149.102 h 23.646 z"
             id="path4592"
             inkscape:connector-curvature="0"
             style="display:inline;fill:#112b00" /><path
             display="inline"
             d="m 1186.977,2041.709 h -23.643 l -4.047,-27.053 h -28.754 l -4.047,27.053 h -21.516 l 23.855,-149.104 h 34.293 z m -53.463,-47.287 h 22.578 l -11.289,-75.402 z"
             id="path4594"
             inkscape:connector-curvature="0"
             style="display:inline;fill:#112b00" /><path
             display="inline"
             d="m 1215.305,1892.607 h 72.42 v 21.301 h -24.493 v 127.801 h -23.431 v -127.801 h -24.496 z"
             id="path4596"
             inkscape:connector-curvature="0"
             style="display:inline;fill:#112b00" /><path
             display="inline"
             d="m 1320.311,1928.391 c 0,-12.066 3.057,-21.332 9.16,-27.795 6.104,-6.461 14.91,-9.691 26.412,-9.691 11.502,0 20.306,3.23 26.412,9.691 6.104,6.463 9.158,15.729 9.158,27.795 v 77.533 c 0,12.07 -3.059,21.336 -9.158,27.797 -6.107,6.463 -14.91,9.691 -26.412,9.691 -11.502,0 -20.309,-3.23 -26.412,-9.691 -6.103,-6.461 -9.16,-15.727 -9.16,-27.797 z m 23.432,79.025 c 0,5.395 1.098,9.193 3.303,11.395 2.199,2.203 5.146,3.305 8.838,3.305 3.691,0 6.637,-1.102 8.84,-3.305 2.201,-2.197 3.304,-5.996 3.304,-11.395 v -80.518 c 0,-5.395 -1.103,-9.189 -3.304,-11.395 -2.203,-2.199 -5.146,-3.303 -8.84,-3.303 -3.694,0 -6.639,1.104 -8.838,3.303 -2.205,2.203 -3.303,6 -3.303,11.395 z"
             id="path4598"
             inkscape:connector-curvature="0"
             style="display:inline;fill:#112b00" /><path
             display="inline"
             d="m 1479.422,2041.709 c -0.287,-0.992 -0.57,-1.918 -0.854,-2.771 -0.283,-0.852 -0.529,-1.916 -0.742,-3.193 -0.217,-1.275 -0.355,-2.906 -0.43,-4.896 -0.07,-1.986 -0.104,-4.473 -0.104,-7.455 v -23.43 c 0,-6.957 -1.207,-11.855 -3.621,-14.697 -2.416,-2.84 -6.32,-4.26 -11.715,-4.26 h -8.094 v 60.705 h -23.434 v -149.104 h 35.357 c 12.211,0 21.051,2.844 26.52,8.521 5.465,5.682 8.199,14.27 8.199,25.77 v 11.721 c 0,15.336 -5.109,25.42 -15.336,30.246 5.965,2.416 10.045,6.354 12.248,11.814 2.199,5.473 3.301,12.107 3.301,19.916 v 23.004 c 0,3.693 0.145,6.926 0.428,9.691 0.281,2.77 0.99,5.574 2.133,8.414 h -23.856 z m -25.561,-127.801 v 45.795 h 9.157 c 4.4,0 7.847,-1.135 10.33,-3.406 2.482,-2.27 3.73,-6.391 3.73,-12.354 v -14.695 c 0,-5.396 -0.959,-9.301 -2.877,-11.717 -1.916,-2.41 -4.938,-3.619 -9.055,-3.619 h -11.288 v 0 0 z"
             id="path4600"
             inkscape:connector-curvature="0"
             style="display:inline;fill:#112b00" /><path
             display="inline"
             d="m 1536.93,1928.391 c 0,-12.066 2.875,-21.332 8.627,-27.795 5.75,-6.461 14.377,-9.691 25.879,-9.691 11.503,0 20.13,3.23 25.882,9.691 5.75,6.463 8.625,15.729 8.625,27.795 v 5.752 h -22.147 v -7.242 c 0,-5.395 -1.033,-9.189 -3.09,-11.395 -2.063,-2.201 -4.938,-3.303 -8.627,-3.303 -3.693,0 -6.568,1.102 -8.625,3.303 -2.063,2.203 -3.09,6 -3.09,11.395 0,5.111 1.135,9.621 3.405,13.525 2.271,3.908 5.112,7.598 8.521,11.076 3.408,3.477 7.063,6.959 10.969,10.438 3.904,3.48 7.564,7.277 10.973,11.396 3.406,4.117 6.244,8.807 8.521,14.057 2.271,5.256 3.406,11.434 3.406,18.531 0,12.072 -2.947,21.338 -8.84,27.797 -5.896,6.463 -14.593,9.691 -26.095,9.691 -11.502,0 -20.201,-3.23 -26.093,-9.691 -5.896,-6.459 -8.84,-15.725 -8.84,-27.797 v -10.229 h 22.15 v 11.721 c 0,5.395 1.1,9.152 3.303,11.289 2.199,2.129 5.146,3.189 8.84,3.189 3.689,0 6.637,-1.063 8.84,-3.189 2.199,-2.137 3.302,-5.896 3.302,-11.289 0,-5.113 -1.14,-9.619 -3.405,-13.525 -2.271,-3.904 -5.111,-7.596 -8.521,-11.076 -3.407,-3.479 -7.063,-6.957 -10.969,-10.438 -3.908,-3.48 -7.563,-7.275 -10.974,-11.396 -3.405,-4.115 -6.25,-8.803 -8.521,-14.059 -2.27,-5.25 -3.406,-11.428 -3.406,-18.531 z"
             id="path4602"
             inkscape:connector-curvature="0"
             style="display:inline;fill:#112b00" /></g></g><g
         id="circle_center_1_"
         display="none"
         style="display:none;fill:#112b00"><circle
           display="inline"
           cx="749.09399"
           cy="752.85101"
           r="540.05298"
           id="circle4607"
           style="display:inline;fill:#112b00;stroke:#637b93;stroke-width:293" /></g><g
         id="lines_center_big_1_"
         display="none"
         style="display:none;fill:#112b00"><g
           display="inline"
           id="g4618"
           style="display:inline;fill:#112b00"><line
             x1="774.92798"
             y1="31.725"
             x2="774.92798"
             y2="1501.725"
             id="line4610"
             style="fill:#112b00;stroke:#ffffff;stroke-width:30" /><line
             x1="1488.928"
             y1="756.72498"
             x2="18.926001"
             y2="756.72498"
             id="line4612"
             style="fill:#112b00;stroke:#ffffff;stroke-width:30" /><line
             x1="1293.936"
             y1="1294.0179"
             x2="271.91699"
             y2="237.43201"
             id="line4614"
             style="fill:#112b00;stroke:#ffffff;stroke-width:30" /><line
             x1="230.633"
             y1="1281.734"
             x2="1287.219"
             y2="259.71301"
             id="line4616"
             style="fill:#112b00;stroke:#ffffff;stroke-width:30" /></g></g><g
         id="lines_center_small_1_"
         display="none"
         style="display:none;fill:#112b00"><line
           display="inline"
           x1="272.927"
           y1="243.72501"
           x2="778.92798"
           y2="363.72501"
           id="line4621"
           style="display:inline;fill:#112b00;stroke:#1131a5;stroke-width:10" /><line
           display="inline"
           x1="767.92798"
           y1="1145.725"
           x2="1273.928"
           y2="1265.725"
           id="line4623"
           style="display:inline;fill:#112b00;stroke:#1131a5;stroke-width:10" /><g
           display="inline"
           id="g4641"
           style="display:inline;fill:#112b00"><line
             x1="784.297"
             y1="45.625"
             x2="1037.557"
             y2="499.82501"
             id="line4625"
             style="fill:#112b00;stroke:#ffffff;stroke-width:10" /><line
             x1="481.09799"
             y1="1025.541"
             x2="793.46503"
             y2="1495.369"
             id="line4627"
             style="fill:#112b00;stroke:#ffffff;stroke-width:10" /><line
             x1="480.784"
             y1="469.901"
             x2="41.071999"
             y2="747.547"
             id="line4629"
             style="fill:#112b00;stroke:#ffffff;stroke-width:10" /><line
             x1="1508.928"
             y1="731.72498"
             x2="1024.359"
             y2="1021.469"
             id="line4631"
             style="fill:#112b00;stroke:#ffffff;stroke-width:10" /><line
             x1="1284.657"
             y1="265.28601"
             x2="1131.198"
             y2="762.16199"
             id="line4633"
             style="fill:#112b00;stroke:#ffffff;stroke-width:10" /><line
             x1="366.927"
             y1="745.72302"
             x2="246.927"
             y2="1251.723"
             id="line4635"
             style="fill:#112b00;stroke:#ffffff;stroke-width:10" /><line
             x1="1300.37"
             y1="1272.4041"
             x2="761.77002"
             y2="1132.238"
             id="line4637"
             style="fill:#112b00;stroke:#ffffff;stroke-width:10" /><line
             x1="763.76202"
             y1="366.409"
             x2="263.90701"
             y2="222.946"
             id="line4639"
             style="fill:#112b00;stroke:#ffffff;stroke-width:10" /></g></g></g></g></svg>